<svg width="36" height="36" viewBox="0 0 36 36" fill="none" xmlns="http://www.w3.org/2000/svg">
<path d="M12.375 31.5C13.6176 31.5 14.625 30.4926 14.625 29.25C14.625 28.0074 13.6176 27 12.375 27C11.1324 27 10.125 28.0074 10.125 29.25C10.125 30.4926 11.1324 31.5 12.375 31.5Z" fill="#2E2E2E"/>
<path d="M28.125 31.5C29.3676 31.5 30.375 30.4926 30.375 29.25C30.375 28.0074 29.3676 27 28.125 27C26.8824 27 25.875 28.0074 25.875 29.25C25.875 30.4926 26.8824 31.5 28.125 31.5Z" fill="#2E2E2E"/>
<path d="M32.1187 8.49234C31.9607 8.29902 31.7616 8.14331 31.5359 8.03653C31.3101 7.92975 31.0635 7.87457 30.8137 7.875H9.41414L8.98313 5.42953C8.93717 5.16904 8.80089 4.93308 8.59824 4.76309C8.39558 4.59309 8.13951 4.49994 7.875 4.5H3.375C3.07663 4.5 2.79048 4.61853 2.5795 4.82951C2.36853 5.04048 2.25 5.32663 2.25 5.625C2.25 5.92337 2.36853 6.20952 2.5795 6.42049C2.79048 6.63147 3.07663 6.75 3.375 6.75H6.93141L10.1419 24.9455C10.1878 25.206 10.3241 25.4419 10.5268 25.6119C10.7294 25.7819 10.9855 25.8751 11.25 25.875H29.25C29.5484 25.875 29.8345 25.7565 30.0455 25.5455C30.2565 25.3345 30.375 25.0484 30.375 24.75C30.375 24.4516 30.2565 24.1655 30.0455 23.9545C29.8345 23.7435 29.5484 23.625 29.25 23.625H12.1936L11.797 21.375H28.7887C29.1789 21.3745 29.5569 21.2392 29.8588 20.9921C30.1606 20.7449 30.3678 20.401 30.4453 20.0187L32.4703 9.89367C32.5191 9.64863 32.5129 9.39582 32.4521 9.15348C32.3913 8.91114 32.2774 8.68533 32.1187 8.49234Z" fill="#2E2E2E"/>
</svg>
