<svg width="79" height="43" viewBox="0 0 79 43" fill="none" xmlns="http://www.w3.org/2000/svg">
<path d="M7.2688 12.72V10.7314L7.21737 10.4057V7.08C7.21737 6.31425 7.00019 5.72572 6.56594 5.31429C6.14305 4.90286 5.50876 4.69715 4.66308 4.69715C4.08023 4.69715 3.52594 4.79432 3.00023 4.98857C2.47451 5.18282 2.02879 5.43997 1.66308 5.76L1.11451 4.85143C1.57166 4.46282 2.12023 4.16572 2.76023 3.96C3.40022 3.74282 4.07452 3.63429 4.78308 3.63429C5.9488 3.63429 6.8459 3.92571 7.47451 4.50857C8.11448 5.07996 8.43451 5.95425 8.43451 7.13143V12.72H7.2688ZM4.16594 12.8057C3.49166 12.8057 2.90308 12.6972 2.40023 12.48C1.90879 12.2515 1.53165 11.9429 1.2688 11.5543C1.00594 11.1543 0.874512 10.6971 0.874512 10.1829C0.874512 9.71432 0.983079 9.29143 1.20023 8.91429C1.42879 8.52568 1.79452 8.21711 2.29737 7.98857C2.81165 7.74857 3.49737 7.62857 4.35451 7.62857H7.45737V8.53715H4.3888C3.52022 8.53715 2.91451 8.69143 2.57165 9C2.24023 9.30857 2.07451 9.69139 2.07451 10.1486C2.07451 10.6629 2.27452 11.0743 2.67451 11.3829C3.07451 11.6914 3.63451 11.8457 4.35451 11.8457C5.04023 11.8457 5.62876 11.6914 6.12023 11.3829C6.62305 11.0628 6.98883 10.6058 7.21737 10.0114L7.49165 10.8514C7.26312 11.4458 6.86305 11.92 6.29165 12.2743C5.73162 12.6286 5.02308 12.8057 4.16594 12.8057ZM11.7404 12.72V0H12.9575V12.72H11.7404ZM16.3442 12.72V0H17.5614V12.72H16.3442ZM28.2804 12.8057C27.4346 12.8057 26.7832 12.5772 26.3261 12.12C25.8689 11.6628 25.6404 11.0172 25.6404 10.1829V1.73143H26.8575V10.1143C26.8575 10.64 26.9889 11.0457 27.2518 11.3314C27.5261 11.6172 27.9146 11.76 28.4175 11.76C28.9546 11.76 29.4003 11.6057 29.7547 11.2971L30.1832 12.1714C29.9432 12.3886 29.6518 12.5486 29.3089 12.6514C28.9774 12.7543 28.6346 12.8057 28.2804 12.8057ZM24.0289 4.73143V3.72H29.6004V4.73143H24.0289ZM36.9932 3.63429C37.7246 3.63429 38.3647 3.77711 38.9132 4.06286C39.4732 4.33714 39.9075 4.76004 40.2161 5.33143C40.536 5.90282 40.6961 6.62282 40.6961 7.49143V12.72H39.4789V7.61143C39.4789 6.66289 39.2389 5.94857 38.7589 5.46857C38.2903 4.97711 37.6275 4.73143 36.7704 4.73143C36.1303 4.73143 35.5704 4.86289 35.0904 5.12572C34.6217 5.37718 34.256 5.74854 33.9932 6.24C33.7418 6.72 33.6161 7.30286 33.6161 7.98857V12.72H32.3989V0H33.6161V6.18857L33.3761 5.72572C33.6617 5.07429 34.1189 4.56568 34.7475 4.2C35.376 3.82286 36.1246 3.63429 36.9932 3.63429ZM43.9838 12.72V3.72H45.2009V12.72H43.9838ZM44.6009 1.73143C44.3494 1.73143 44.1381 1.64572 43.9666 1.47429C43.7952 1.30286 43.7095 1.09715 43.7095 0.857146C43.7095 0.617146 43.7952 0.417109 43.9666 0.257145C44.1381 0.0857161 44.3494 0 44.6009 0C44.8523 0 45.0638 0.0800388 45.2352 0.240003C45.4066 0.399967 45.4923 0.6 45.4923 0.840001C45.4923 1.09146 45.4066 1.30286 45.2352 1.47429C45.0751 1.64572 44.8637 1.73143 44.6009 1.73143ZM53.1818 3.63429C53.9132 3.63429 54.5532 3.77711 55.1018 4.06286C55.6618 4.33714 56.0961 4.76004 56.4046 5.33143C56.7247 5.90282 56.8846 6.62282 56.8846 7.49143V12.72H55.6675V7.61143C55.6675 6.66289 55.4275 5.94857 54.9475 5.46857C54.4789 4.97711 53.8161 4.73143 52.9589 4.73143C52.3189 4.73143 51.7589 4.86289 51.2789 5.12572C50.8104 5.37718 50.4447 5.74854 50.1818 6.24C49.9304 6.72 49.8046 7.30286 49.8046 7.98857V12.72H48.5875V3.72H49.7532V6.18857L49.5646 5.72572C49.8504 5.07429 50.3075 4.56568 50.9361 4.2C51.5647 3.82286 52.3133 3.63429 53.1818 3.63429ZM64.0123 16.1314C63.1894 16.1314 62.4009 16.0114 61.6466 15.7714C60.8923 15.5314 60.2809 15.1886 59.8123 14.7429L60.4294 13.8171C60.8523 14.1943 61.3723 14.4914 61.9894 14.7086C62.6181 14.9371 63.2809 15.0514 63.978 15.0514C65.1209 15.0514 65.9609 14.7828 66.498 14.2457C67.0352 13.72 67.3037 12.8971 67.3037 11.7771V9.53143L67.4752 7.98857L67.3552 6.44572V3.72H68.5209V11.6229C68.5209 13.1772 68.1381 14.3143 67.3723 15.0343C66.618 15.7658 65.4981 16.1314 64.0123 16.1314ZM63.7894 12.3771C62.9323 12.3771 62.1609 12.1943 61.4752 11.8286C60.7894 11.4514 60.2467 10.9315 59.8466 10.2686C59.4581 9.60568 59.2637 8.84572 59.2637 7.98857C59.2637 7.13143 59.4581 6.37715 59.8466 5.72572C60.2467 5.06282 60.7894 4.54854 61.4752 4.18286C62.1609 3.81718 62.9323 3.63429 63.7894 3.63429C64.5895 3.63429 65.3095 3.80004 65.9494 4.13143C66.5895 4.46282 67.098 4.95429 67.4752 5.60572C67.8523 6.25715 68.0409 7.05139 68.0409 7.98857C68.0409 8.92575 67.8523 9.72 67.4752 10.3714C67.098 11.0229 66.5895 11.52 65.9494 11.8629C65.3095 12.2057 64.5895 12.3771 63.7894 12.3771ZM63.9094 11.2971C64.5723 11.2971 65.1609 11.16 65.6752 10.8857C66.1894 10.6 66.5952 10.2115 66.8923 9.72C67.1895 9.21718 67.338 8.64 67.338 7.98857C67.338 7.33714 67.1895 6.76575 66.8923 6.27429C66.5952 5.78282 66.1894 5.4 65.6752 5.12572C65.1609 4.83996 64.5723 4.69715 63.9094 4.69715C63.258 4.69715 62.6695 4.83996 62.1437 5.12572C61.6294 5.4 61.2238 5.78282 60.9266 6.27429C60.6409 6.76575 60.498 7.33714 60.498 7.98857C60.498 8.64 60.6409 9.21718 60.9266 9.72C61.2238 10.2115 61.6294 10.6 62.1437 10.8857C62.6695 11.16 63.258 11.2971 63.9094 11.2971ZM74.325 12.8057C73.5821 12.8057 72.8792 12.7029 72.2164 12.4971C71.5536 12.28 71.0336 12.0115 70.6565 11.6914L71.205 10.7314C71.5707 11.0057 72.0392 11.2457 72.6107 11.4514C73.1821 11.6457 73.7821 11.7429 74.4107 11.7429C75.2679 11.7429 75.885 11.6114 76.2622 11.3486C76.6393 11.0743 76.8279 10.7143 76.8279 10.2686C76.8279 9.93718 76.7192 9.68004 76.5022 9.49715C76.2964 9.3029 76.0222 9.15997 75.6793 9.06857C75.3364 8.96572 74.9535 8.88 74.5307 8.81143C74.1078 8.74286 73.685 8.66282 73.2622 8.57143C72.8507 8.48004 72.4736 8.34857 72.1307 8.17714C71.7879 7.99425 71.5078 7.74857 71.2907 7.44C71.085 7.13143 70.9822 6.72 70.9822 6.20571C70.9822 5.71425 71.1193 5.27432 71.3936 4.88572C71.6679 4.49711 72.0678 4.19432 72.5936 3.97715C73.1307 3.74861 73.7821 3.63429 74.5479 3.63429C75.1307 3.63429 75.7136 3.71432 76.2965 3.87429C76.8793 4.02289 77.3593 4.22282 77.7365 4.47429L77.205 5.45143C76.805 5.17714 76.3764 4.9829 75.9193 4.86857C75.4621 4.7429 75.005 4.68 74.5479 4.68C73.7364 4.68 73.1364 4.82282 72.7479 5.10857C72.3707 5.38286 72.1822 5.73718 72.1822 6.17143C72.1822 6.51429 72.285 6.78289 72.4907 6.97714C72.7078 7.17139 72.9879 7.32568 73.3307 7.44C73.6849 7.54286 74.0679 7.62857 74.4793 7.69715C74.9021 7.76572 75.3193 7.85143 75.7307 7.95429C76.1535 8.04568 76.5365 8.17714 76.8793 8.34857C77.2335 8.50854 77.5136 8.74286 77.7193 9.05143C77.9364 9.34854 78.045 9.74282 78.045 10.2343C78.045 10.76 77.8964 11.2171 77.5993 11.6057C77.3136 11.9829 76.8907 12.28 76.3307 12.4971C75.7822 12.7029 75.1136 12.8057 74.325 12.8057Z" fill="#2E2E2E"/>
<path d="M2.77714 37.1857V19.4171H7.25143V37.1857H2.77714ZM0 28.34V24.6114H10.0286V28.34H0ZM19.7526 37.1857V30.0885C19.7526 29.5057 19.5812 29.0514 19.2384 28.7257C18.8955 28.3828 18.4584 28.2114 17.9269 28.2114C17.5669 28.2114 17.2412 28.2886 16.9498 28.4428C16.6755 28.5971 16.4612 28.8114 16.3069 29.0857C16.1526 29.36 16.0755 29.6943 16.0755 30.0885L14.3269 29.2657C14.3269 28.2543 14.5326 27.3885 14.9441 26.6685C15.3726 25.9314 15.9555 25.3657 16.6926 24.9714C17.4298 24.56 18.2869 24.3543 19.2641 24.3543C20.2755 24.3543 21.1498 24.56 21.8869 24.9714C22.6412 25.3657 23.2155 25.9143 23.6098 26.6171C24.0212 27.32 24.2269 28.1343 24.2269 29.06V37.1857H19.7526ZM11.6012 37.1857V18.44H16.0755V37.1857H11.6012ZM26.5928 37.1857V24.6114H31.067V37.1857H26.5928ZM31.067 30.3457L29.0613 28.6486C29.5585 27.2257 30.2185 26.1543 31.0413 25.4343C31.8642 24.7143 32.9356 24.3543 34.2556 24.3543C34.8556 24.3543 35.3699 24.4314 35.7985 24.5857C36.2442 24.74 36.6213 24.98 36.9299 25.3057L34.3327 28.7771C34.1956 28.6228 33.9985 28.5028 33.7413 28.4171C33.5013 28.3143 33.227 28.2628 32.9185 28.2628C32.3356 28.2628 31.8813 28.4428 31.5556 28.8028C31.2299 29.1457 31.067 29.66 31.067 30.3457ZM37.7669 37.1857V24.6114H42.2669V37.1857H37.7669ZM40.004 23.1457C39.3355 23.1457 38.7783 22.9228 38.3326 22.4771C37.8869 22.0143 37.664 21.44 37.664 20.7543C37.664 20.0857 37.8869 19.52 38.3326 19.0571C38.7783 18.5943 39.3355 18.3628 40.004 18.3628C40.7069 18.3628 41.2726 18.5943 41.7012 19.0571C42.1469 19.52 42.3697 20.0857 42.3697 20.7543C42.3697 21.44 42.1469 22.0143 41.7012 22.4771C41.2726 22.9228 40.7069 23.1457 40.004 23.1457ZM46.4169 37.1857V23.8143C46.4169 22.7514 46.6483 21.8 47.1111 20.96C47.574 20.1028 48.234 19.4171 49.0911 18.9028C49.9654 18.3886 51.0111 18.1314 52.2283 18.1314C53.1369 18.1314 53.934 18.2857 54.6197 18.5943C55.3054 18.8857 55.8969 19.28 56.394 19.7771L53.5911 22.58C53.454 22.4257 53.2826 22.3143 53.0769 22.2457C52.8883 22.16 52.6654 22.1171 52.4083 22.1171C51.9454 22.1171 51.5769 22.2543 51.3026 22.5286C51.0283 22.8028 50.8911 23.1714 50.8911 23.6343V37.1857H46.4169ZM43.7426 28.34V24.6114H54.4397V28.34H43.7426ZM57.4953 37.1857V19.4171H61.9696V37.1857H57.4953ZM54.7182 28.34V24.6114H64.7468V28.34H54.7182ZM70.0737 37.2114L65.0337 24.6114H69.8165L72.9022 34.9743H71.0251L74.1365 24.6114H78.9194L73.7508 37.1857L70.0737 37.2114ZM67.0908 42.5086L70.8194 34.3057L73.7508 37.1857L71.5908 42.5086H67.0908Z" fill="#2E2E2E"/>
</svg>
